<mxfile host="Electron" modified="2023-07-11T06:34:48.477Z" agent="Mozilla/5.0 (Windows NT 10.0; Win64; x64) AppleWebKit/537.36 (KHTML, like Gecko) draw.io/21.5.0 Chrome/112.0.5615.204 Electron/24.5.1 Safari/537.36" etag="LEg6i0VSYbDqJrrxCnct" version="21.5.0" type="device">
  <diagram name="第 1 页" id="F1Z0U4CtziaQKLGewLjA">
    <mxGraphModel dx="1536" dy="893" grid="1" gridSize="10" guides="1" tooltips="1" connect="1" arrows="1" fold="0" page="1" pageScale="1" pageWidth="1169" pageHeight="827" math="0" shadow="0">
      <root>
        <mxCell id="0" />
        <mxCell id="1" parent="0" />
        <mxCell id="g26mmf6BAN4Ecrwf_Er3-307" value="" style="endArrow=classic;html=1;rounded=0;strokeWidth=3;" edge="1" parent="1">
          <mxGeometry width="50" height="50" relative="1" as="geometry">
            <mxPoint x="30" y="311" as="sourcePoint" />
            <mxPoint x="220" y="311" as="targetPoint" />
          </mxGeometry>
        </mxCell>
        <mxCell id="g26mmf6BAN4Ecrwf_Er3-308" value="&lt;b&gt;&lt;font style=&quot;font-size: 15px;&quot;&gt;D&lt;/font&gt;&lt;/b&gt;" style="rounded=1;whiteSpace=wrap;html=1;" vertex="1" parent="1">
          <mxGeometry x="220" y="261" width="50" height="100" as="geometry" />
        </mxCell>
        <mxCell id="g26mmf6BAN4Ecrwf_Er3-309" value="" style="endArrow=classic;html=1;rounded=0;strokeWidth=3;" edge="1" parent="1">
          <mxGeometry width="50" height="50" relative="1" as="geometry">
            <mxPoint x="270" y="310.78999999999996" as="sourcePoint" />
            <mxPoint x="370" y="311" as="targetPoint" />
          </mxGeometry>
        </mxCell>
        <mxCell id="g26mmf6BAN4Ecrwf_Er3-310" value="&lt;font size=&quot;1&quot; style=&quot;&quot;&gt;&lt;b style=&quot;font-size: 12px;&quot;&gt;pc_x_q[31:0]&lt;/b&gt;&lt;/font&gt;" style="text;strokeColor=none;align=center;fillColor=none;html=1;verticalAlign=middle;whiteSpace=wrap;rounded=0;" vertex="1" parent="1">
          <mxGeometry x="275" y="292" width="80" height="20" as="geometry" />
        </mxCell>
        <mxCell id="g26mmf6BAN4Ecrwf_Er3-311" value="&lt;b&gt;&lt;font style=&quot;font-size: 15px;&quot;&gt;Issue&lt;br&gt;Select&lt;br&gt;&lt;/font&gt;&lt;/b&gt;" style="rounded=1;whiteSpace=wrap;html=1;" vertex="1" parent="1">
          <mxGeometry x="370" y="261" width="50" height="100" as="geometry" />
        </mxCell>
        <mxCell id="g26mmf6BAN4Ecrwf_Er3-312" value="" style="endArrow=classic;html=1;rounded=0;strokeWidth=3;" edge="1" parent="1">
          <mxGeometry width="50" height="50" relative="1" as="geometry">
            <mxPoint x="30" y="341" as="sourcePoint" />
            <mxPoint x="220" y="341" as="targetPoint" />
          </mxGeometry>
        </mxCell>
        <mxCell id="g26mmf6BAN4Ecrwf_Er3-313" value="" style="endArrow=classic;html=1;rounded=0;strokeWidth=3;" edge="1" parent="1">
          <mxGeometry width="50" height="50" relative="1" as="geometry">
            <mxPoint x="30" y="281" as="sourcePoint" />
            <mxPoint x="220" y="281" as="targetPoint" />
          </mxGeometry>
        </mxCell>
        <mxCell id="g26mmf6BAN4Ecrwf_Er3-314" value="&lt;font size=&quot;1&quot; style=&quot;&quot;&gt;&lt;b style=&quot;font-size: 12px;&quot;&gt;branch_d_exec0_pc_i[31:0]&lt;/b&gt;&lt;/font&gt;" style="text;strokeColor=none;align=center;fillColor=none;html=1;verticalAlign=middle;whiteSpace=wrap;rounded=0;" vertex="1" parent="1">
          <mxGeometry x="38" y="260" width="170" height="20" as="geometry" />
        </mxCell>
        <mxCell id="g26mmf6BAN4Ecrwf_Er3-315" value="&lt;font size=&quot;1&quot; style=&quot;&quot;&gt;&lt;b style=&quot;font-size: 12px;&quot;&gt;branch_d_exec1_pc_i[31:0]&lt;/b&gt;&lt;/font&gt;" style="text;strokeColor=none;align=center;fillColor=none;html=1;verticalAlign=middle;whiteSpace=wrap;rounded=0;" vertex="1" parent="1">
          <mxGeometry x="38" y="291" width="170" height="20" as="geometry" />
        </mxCell>
        <mxCell id="g26mmf6BAN4Ecrwf_Er3-316" value="&lt;font size=&quot;1&quot; style=&quot;&quot;&gt;&lt;b style=&quot;font-size: 12px;&quot;&gt;pc_x_q+32&#39;d8 [31:0]&lt;/b&gt;&lt;/font&gt;" style="text;strokeColor=none;align=center;fillColor=none;html=1;verticalAlign=middle;whiteSpace=wrap;rounded=0;" vertex="1" parent="1">
          <mxGeometry x="38" y="320" width="170" height="20" as="geometry" />
        </mxCell>
        <mxCell id="g26mmf6BAN4Ecrwf_Er3-317" value="" style="endArrow=classic;html=1;rounded=0;strokeWidth=3;" edge="1" parent="1">
          <mxGeometry width="50" height="50" relative="1" as="geometry">
            <mxPoint x="420" y="290.78999999999996" as="sourcePoint" />
            <mxPoint x="520" y="291" as="targetPoint" />
          </mxGeometry>
        </mxCell>
        <mxCell id="g26mmf6BAN4Ecrwf_Er3-318" value="&lt;font size=&quot;1&quot; style=&quot;&quot;&gt;&lt;b style=&quot;font-size: 12px;&quot;&gt;slot0_valid_r&lt;/b&gt;&lt;/font&gt;" style="text;strokeColor=none;align=center;fillColor=none;html=1;verticalAlign=middle;whiteSpace=wrap;rounded=0;" vertex="1" parent="1">
          <mxGeometry x="425" y="272" width="80" height="20" as="geometry" />
        </mxCell>
        <mxCell id="g26mmf6BAN4Ecrwf_Er3-319" value="" style="endArrow=classic;html=1;rounded=0;strokeWidth=3;" edge="1" parent="1">
          <mxGeometry width="50" height="50" relative="1" as="geometry">
            <mxPoint x="420" y="329.78999999999996" as="sourcePoint" />
            <mxPoint x="520" y="330" as="targetPoint" />
          </mxGeometry>
        </mxCell>
        <mxCell id="g26mmf6BAN4Ecrwf_Er3-320" value="&lt;font size=&quot;1&quot; style=&quot;&quot;&gt;&lt;b style=&quot;font-size: 12px;&quot;&gt;slot1_valid_r&lt;/b&gt;&lt;/font&gt;" style="text;strokeColor=none;align=center;fillColor=none;html=1;verticalAlign=middle;whiteSpace=wrap;rounded=0;" vertex="1" parent="1">
          <mxGeometry x="425" y="311" width="80" height="20" as="geometry" />
        </mxCell>
        <mxCell id="g26mmf6BAN4Ecrwf_Er3-336" value="" style="endArrow=classic;html=1;rounded=0;strokeWidth=3;" edge="1" parent="1">
          <mxGeometry width="50" height="50" relative="1" as="geometry">
            <mxPoint x="1130" y="259.28999999999996" as="sourcePoint" />
            <mxPoint x="1330" y="258.5" as="targetPoint" />
          </mxGeometry>
        </mxCell>
        <mxCell id="g26mmf6BAN4Ecrwf_Er3-337" value="&lt;font size=&quot;1&quot; style=&quot;&quot;&gt;&lt;b style=&quot;font-size: 12px;&quot;&gt;opcode0_ra_operand_o[31:0]&lt;/b&gt;&lt;/font&gt;" style="text;strokeColor=none;align=center;fillColor=none;html=1;verticalAlign=middle;whiteSpace=wrap;rounded=0;" vertex="1" parent="1">
          <mxGeometry x="1135" y="238.5" width="170" height="20" as="geometry" />
        </mxCell>
        <mxCell id="g26mmf6BAN4Ecrwf_Er3-338" value="" style="endArrow=classic;html=1;rounded=0;strokeWidth=3;" edge="1" parent="1">
          <mxGeometry width="50" height="50" relative="1" as="geometry">
            <mxPoint x="1130" y="298.28999999999996" as="sourcePoint" />
            <mxPoint x="1330" y="298.5" as="targetPoint" />
          </mxGeometry>
        </mxCell>
        <mxCell id="g26mmf6BAN4Ecrwf_Er3-339" value="&lt;font size=&quot;1&quot; style=&quot;&quot;&gt;&lt;b style=&quot;font-size: 12px;&quot;&gt;opcode0_rb_operand_o[31:0]&lt;/b&gt;&lt;/font&gt;" style="text;strokeColor=none;align=center;fillColor=none;html=1;verticalAlign=middle;whiteSpace=wrap;rounded=0;" vertex="1" parent="1">
          <mxGeometry x="1135" y="277.5" width="175" height="20" as="geometry" />
        </mxCell>
        <mxCell id="g26mmf6BAN4Ecrwf_Er3-340" value="" style="endArrow=classic;html=1;rounded=0;strokeWidth=3;" edge="1" parent="1">
          <mxGeometry width="50" height="50" relative="1" as="geometry">
            <mxPoint x="1130" y="420.28999999999996" as="sourcePoint" />
            <mxPoint x="1330" y="420.5" as="targetPoint" />
          </mxGeometry>
        </mxCell>
        <mxCell id="g26mmf6BAN4Ecrwf_Er3-341" value="&lt;font size=&quot;1&quot; style=&quot;&quot;&gt;&lt;b style=&quot;font-size: 12px;&quot;&gt;opcode1_ra_operand_o[31:0]&lt;/b&gt;&lt;/font&gt;" style="text;strokeColor=none;align=center;fillColor=none;html=1;verticalAlign=middle;whiteSpace=wrap;rounded=0;" vertex="1" parent="1">
          <mxGeometry x="1135" y="399.5" width="175" height="20" as="geometry" />
        </mxCell>
        <mxCell id="g26mmf6BAN4Ecrwf_Er3-342" value="" style="endArrow=classic;html=1;rounded=0;strokeWidth=3;" edge="1" parent="1">
          <mxGeometry width="50" height="50" relative="1" as="geometry">
            <mxPoint x="1130" y="459.28999999999996" as="sourcePoint" />
            <mxPoint x="1330" y="459.5" as="targetPoint" />
          </mxGeometry>
        </mxCell>
        <mxCell id="g26mmf6BAN4Ecrwf_Er3-343" value="&lt;font size=&quot;1&quot; style=&quot;&quot;&gt;&lt;b style=&quot;font-size: 12px;&quot;&gt;opcode1_rb_operand_o[31:0]&lt;/b&gt;&lt;/font&gt;" style="text;strokeColor=none;align=center;fillColor=none;html=1;verticalAlign=middle;whiteSpace=wrap;rounded=0;" vertex="1" parent="1">
          <mxGeometry x="1135" y="438.5" width="175" height="20" as="geometry" />
        </mxCell>
        <mxCell id="g26mmf6BAN4Ecrwf_Er3-345" value="" style="endArrow=classic;html=1;rounded=0;strokeWidth=3;" edge="1" parent="1">
          <mxGeometry width="50" height="50" relative="1" as="geometry">
            <mxPoint x="610" y="548.79" as="sourcePoint" />
            <mxPoint x="1050" y="550" as="targetPoint" />
          </mxGeometry>
        </mxCell>
        <mxCell id="g26mmf6BAN4Ecrwf_Er3-346" value="&lt;font size=&quot;1&quot; style=&quot;&quot;&gt;&lt;b style=&quot;font-size: 12px;&quot;&gt;issue_a_ra_idx_w[4:0]&lt;/b&gt;&lt;/font&gt;" style="text;strokeColor=none;align=center;fillColor=none;html=1;verticalAlign=middle;whiteSpace=wrap;rounded=0;" vertex="1" parent="1">
          <mxGeometry x="615" y="530" width="125" height="20" as="geometry" />
        </mxCell>
        <mxCell id="g26mmf6BAN4Ecrwf_Er3-347" value="" style="endArrow=classic;html=1;rounded=0;strokeWidth=3;" edge="1" parent="1">
          <mxGeometry width="50" height="50" relative="1" as="geometry">
            <mxPoint x="610" y="577.79" as="sourcePoint" />
            <mxPoint x="1050" y="578" as="targetPoint" />
          </mxGeometry>
        </mxCell>
        <mxCell id="g26mmf6BAN4Ecrwf_Er3-348" value="&lt;font size=&quot;1&quot; style=&quot;&quot;&gt;&lt;b style=&quot;font-size: 12px;&quot;&gt;issue_a_rb_idx_w[4:0]&lt;/b&gt;&lt;/font&gt;" style="text;strokeColor=none;align=center;fillColor=none;html=1;verticalAlign=middle;whiteSpace=wrap;rounded=0;" vertex="1" parent="1">
          <mxGeometry x="615" y="559" width="125" height="20" as="geometry" />
        </mxCell>
        <mxCell id="g26mmf6BAN4Ecrwf_Er3-349" value="" style="endArrow=classic;html=1;rounded=0;strokeWidth=3;" edge="1" parent="1">
          <mxGeometry width="50" height="50" relative="1" as="geometry">
            <mxPoint x="610" y="609" as="sourcePoint" />
            <mxPoint x="1050" y="608" as="targetPoint" />
          </mxGeometry>
        </mxCell>
        <mxCell id="g26mmf6BAN4Ecrwf_Er3-350" value="&lt;font size=&quot;1&quot; style=&quot;&quot;&gt;&lt;b style=&quot;font-size: 12px;&quot;&gt;issue_a_rd_idx_w[4:0]&lt;/b&gt;&lt;/font&gt;" style="text;strokeColor=none;align=center;fillColor=none;html=1;verticalAlign=middle;whiteSpace=wrap;rounded=0;" vertex="1" parent="1">
          <mxGeometry x="615" y="590.21" width="125" height="20" as="geometry" />
        </mxCell>
        <mxCell id="g26mmf6BAN4Ecrwf_Er3-351" value="" style="endArrow=classic;html=1;rounded=0;strokeWidth=3;" edge="1" parent="1">
          <mxGeometry width="50" height="50" relative="1" as="geometry">
            <mxPoint x="610" y="640.79" as="sourcePoint" />
            <mxPoint x="1050" y="640" as="targetPoint" />
          </mxGeometry>
        </mxCell>
        <mxCell id="g26mmf6BAN4Ecrwf_Er3-352" value="&lt;font size=&quot;1&quot; style=&quot;&quot;&gt;&lt;b style=&quot;font-size: 12px;&quot;&gt;issue_b_ra_idx_w[4:0]&lt;/b&gt;&lt;/font&gt;" style="text;strokeColor=none;align=center;fillColor=none;html=1;verticalAlign=middle;whiteSpace=wrap;rounded=0;" vertex="1" parent="1">
          <mxGeometry x="615" y="622" width="125" height="20" as="geometry" />
        </mxCell>
        <mxCell id="g26mmf6BAN4Ecrwf_Er3-353" value="" style="endArrow=classic;html=1;rounded=0;strokeWidth=3;" edge="1" parent="1">
          <mxGeometry width="50" height="50" relative="1" as="geometry">
            <mxPoint x="610" y="668.79" as="sourcePoint" />
            <mxPoint x="1050" y="670" as="targetPoint" />
          </mxGeometry>
        </mxCell>
        <mxCell id="g26mmf6BAN4Ecrwf_Er3-354" value="&lt;font size=&quot;1&quot; style=&quot;&quot;&gt;&lt;b style=&quot;font-size: 12px;&quot;&gt;issue_b_rb_idx_w[4:0]&lt;/b&gt;&lt;/font&gt;" style="text;strokeColor=none;align=center;fillColor=none;html=1;verticalAlign=middle;whiteSpace=wrap;rounded=0;" vertex="1" parent="1">
          <mxGeometry x="615" y="650" width="125" height="20" as="geometry" />
        </mxCell>
        <mxCell id="g26mmf6BAN4Ecrwf_Er3-355" value="" style="endArrow=classic;html=1;rounded=0;strokeWidth=3;" edge="1" parent="1">
          <mxGeometry width="50" height="50" relative="1" as="geometry">
            <mxPoint x="610" y="700.79" as="sourcePoint" />
            <mxPoint x="1050" y="700" as="targetPoint" />
          </mxGeometry>
        </mxCell>
        <mxCell id="g26mmf6BAN4Ecrwf_Er3-356" value="&lt;font size=&quot;1&quot; style=&quot;&quot;&gt;&lt;b style=&quot;font-size: 12px;&quot;&gt;issue_b_rd_idx_w[4:0]&lt;/b&gt;&lt;/font&gt;" style="text;strokeColor=none;align=center;fillColor=none;html=1;verticalAlign=middle;whiteSpace=wrap;rounded=0;" vertex="1" parent="1">
          <mxGeometry x="610" y="680" width="135" height="21" as="geometry" />
        </mxCell>
        <mxCell id="g26mmf6BAN4Ecrwf_Er3-357" value="&lt;b&gt;ScoreBoard&lt;br&gt;&lt;/b&gt;" style="rounded=1;whiteSpace=wrap;html=1;" vertex="1" parent="1">
          <mxGeometry x="1050" y="530" width="80" height="182" as="geometry" />
        </mxCell>
        <mxCell id="g26mmf6BAN4Ecrwf_Er3-358" value="" style="endArrow=classic;html=1;rounded=0;strokeWidth=3;" edge="1" parent="1">
          <mxGeometry width="50" height="50" relative="1" as="geometry">
            <mxPoint x="1130" y="559.52" as="sourcePoint" />
            <mxPoint x="1330" y="558.73" as="targetPoint" />
          </mxGeometry>
        </mxCell>
        <mxCell id="g26mmf6BAN4Ecrwf_Er3-359" value="&lt;font size=&quot;1&quot; style=&quot;&quot;&gt;&lt;b style=&quot;font-size: 12px;&quot;&gt;opcode_a_issue_r&lt;/b&gt;&lt;/font&gt;" style="text;strokeColor=none;align=center;fillColor=none;html=1;verticalAlign=middle;whiteSpace=wrap;rounded=0;" vertex="1" parent="1">
          <mxGeometry x="1135" y="540.73" width="110" height="20" as="geometry" />
        </mxCell>
        <mxCell id="g26mmf6BAN4Ecrwf_Er3-360" value="" style="endArrow=classic;html=1;rounded=0;strokeWidth=3;" edge="1" parent="1">
          <mxGeometry width="50" height="50" relative="1" as="geometry">
            <mxPoint x="1130" y="598.52" as="sourcePoint" />
            <mxPoint x="1330" y="598.73" as="targetPoint" />
          </mxGeometry>
        </mxCell>
        <mxCell id="g26mmf6BAN4Ecrwf_Er3-361" value="&lt;font size=&quot;1&quot; style=&quot;&quot;&gt;&lt;b style=&quot;font-size: 12px;&quot;&gt;opcode_a_accept_r&lt;/b&gt;&lt;/font&gt;" style="text;strokeColor=none;align=center;fillColor=none;html=1;verticalAlign=middle;whiteSpace=wrap;rounded=0;" vertex="1" parent="1">
          <mxGeometry x="1137.5" y="579.73" width="110" height="20" as="geometry" />
        </mxCell>
        <mxCell id="g26mmf6BAN4Ecrwf_Er3-362" value="" style="endArrow=classic;html=1;rounded=0;strokeWidth=3;" edge="1" parent="1">
          <mxGeometry width="50" height="50" relative="1" as="geometry">
            <mxPoint x="1130" y="638.52" as="sourcePoint" />
            <mxPoint x="1330" y="638.73" as="targetPoint" />
          </mxGeometry>
        </mxCell>
        <mxCell id="g26mmf6BAN4Ecrwf_Er3-363" value="&lt;font size=&quot;1&quot; style=&quot;&quot;&gt;&lt;b style=&quot;font-size: 12px;&quot;&gt;opcode_b_issue_r&lt;/b&gt;&lt;/font&gt;" style="text;strokeColor=none;align=center;fillColor=none;html=1;verticalAlign=middle;whiteSpace=wrap;rounded=0;" vertex="1" parent="1">
          <mxGeometry x="1135" y="619.73" width="110" height="20" as="geometry" />
        </mxCell>
        <mxCell id="g26mmf6BAN4Ecrwf_Er3-364" value="" style="endArrow=classic;html=1;rounded=0;strokeWidth=3;" edge="1" parent="1">
          <mxGeometry width="50" height="50" relative="1" as="geometry">
            <mxPoint x="1130" y="677.52" as="sourcePoint" />
            <mxPoint x="1330" y="677.73" as="targetPoint" />
          </mxGeometry>
        </mxCell>
        <mxCell id="g26mmf6BAN4Ecrwf_Er3-365" value="&lt;font size=&quot;1&quot; style=&quot;&quot;&gt;&lt;b style=&quot;font-size: 12px;&quot;&gt;opcode_b_accept_r&lt;/b&gt;&lt;/font&gt;" style="text;strokeColor=none;align=center;fillColor=none;html=1;verticalAlign=middle;whiteSpace=wrap;rounded=0;" vertex="1" parent="1">
          <mxGeometry x="1138" y="657.73" width="110" height="20" as="geometry" />
        </mxCell>
        <mxCell id="g26mmf6BAN4Ecrwf_Er3-371" value="&lt;b&gt;Regfile&lt;br&gt;&lt;/b&gt;" style="rounded=1;whiteSpace=wrap;html=1;" vertex="1" parent="1">
          <mxGeometry x="740" y="61" width="60" height="120" as="geometry" />
        </mxCell>
        <mxCell id="g26mmf6BAN4Ecrwf_Er3-375" value="" style="endArrow=classic;html=1;rounded=0;strokeWidth=3;exitX=0.217;exitY=0.001;exitDx=0;exitDy=0;exitPerimeter=0;" edge="1" parent="1">
          <mxGeometry width="50" height="50" relative="1" as="geometry">
            <mxPoint x="539.53" y="210.45000000000005" as="sourcePoint" />
            <mxPoint x="740" y="80" as="targetPoint" />
            <Array as="points">
              <mxPoint x="540" y="80" />
            </Array>
          </mxGeometry>
        </mxCell>
        <mxCell id="g26mmf6BAN4Ecrwf_Er3-376" value="" style="endArrow=classic;html=1;rounded=0;strokeWidth=3;" edge="1" parent="1">
          <mxGeometry width="50" height="50" relative="1" as="geometry">
            <mxPoint x="560" y="210" as="sourcePoint" />
            <mxPoint x="740" y="110" as="targetPoint" />
            <Array as="points">
              <mxPoint x="560" y="110" />
            </Array>
          </mxGeometry>
        </mxCell>
        <mxCell id="g26mmf6BAN4Ecrwf_Er3-377" value="" style="endArrow=classic;html=1;rounded=0;strokeWidth=3;exitX=0.669;exitY=0;exitDx=0;exitDy=0;exitPerimeter=0;" edge="1" parent="1">
          <mxGeometry width="50" height="50" relative="1" as="geometry">
            <mxPoint x="580.2100000000003" y="210" as="sourcePoint" />
            <mxPoint x="740" y="140" as="targetPoint" />
            <Array as="points">
              <mxPoint x="580" y="140" />
            </Array>
          </mxGeometry>
        </mxCell>
        <mxCell id="g26mmf6BAN4Ecrwf_Er3-378" value="" style="endArrow=classic;html=1;rounded=0;strokeWidth=3;exitX=0.89;exitY=0;exitDx=0;exitDy=0;exitPerimeter=0;" edge="1" parent="1">
          <mxGeometry width="50" height="50" relative="1" as="geometry">
            <mxPoint x="600.1000000000001" y="210" as="sourcePoint" />
            <mxPoint x="740" y="170" as="targetPoint" />
            <Array as="points">
              <mxPoint x="600" y="170" />
            </Array>
          </mxGeometry>
        </mxCell>
        <mxCell id="g26mmf6BAN4Ecrwf_Er3-379" value="&lt;b style=&quot;border-color: var(--border-color);&quot;&gt;issue_a_ra_idx_w[4:0]&lt;/b&gt;" style="text;strokeColor=none;align=center;fillColor=none;html=1;verticalAlign=middle;whiteSpace=wrap;rounded=0;" vertex="1" parent="1">
          <mxGeometry x="589" y="61" width="138" height="20" as="geometry" />
        </mxCell>
        <mxCell id="g26mmf6BAN4Ecrwf_Er3-380" value="&lt;b style=&quot;border-color: var(--border-color);&quot;&gt;issue_a_rb_idx_w[4:0]&lt;/b&gt;" style="text;strokeColor=none;align=center;fillColor=none;html=1;verticalAlign=middle;whiteSpace=wrap;rounded=0;" vertex="1" parent="1">
          <mxGeometry x="589" y="91" width="138" height="20" as="geometry" />
        </mxCell>
        <mxCell id="g26mmf6BAN4Ecrwf_Er3-381" value="&lt;b style=&quot;border-color: var(--border-color);&quot;&gt;issue_b_ra_idx_w[4:0]&lt;/b&gt;" style="text;strokeColor=none;align=center;fillColor=none;html=1;verticalAlign=middle;whiteSpace=wrap;rounded=0;" vertex="1" parent="1">
          <mxGeometry x="588" y="121" width="138" height="20" as="geometry" />
        </mxCell>
        <mxCell id="g26mmf6BAN4Ecrwf_Er3-382" value="&lt;b style=&quot;border-color: var(--border-color);&quot;&gt;issue_b_rb_idx_w[4:0]&lt;/b&gt;" style="text;strokeColor=none;align=center;fillColor=none;html=1;verticalAlign=middle;whiteSpace=wrap;rounded=0;" vertex="1" parent="1">
          <mxGeometry x="588" y="151" width="138" height="20" as="geometry" />
        </mxCell>
        <mxCell id="g26mmf6BAN4Ecrwf_Er3-391" value="" style="endArrow=classic;html=1;rounded=0;strokeWidth=3;" edge="1" parent="1">
          <mxGeometry width="50" height="50" relative="1" as="geometry">
            <mxPoint x="800" y="79.78999999999996" as="sourcePoint" />
            <mxPoint x="1050" y="230" as="targetPoint" />
            <Array as="points">
              <mxPoint x="1000" y="80" />
              <mxPoint x="1000" y="230" />
            </Array>
          </mxGeometry>
        </mxCell>
        <mxCell id="g26mmf6BAN4Ecrwf_Er3-392" value="&lt;b style=&quot;border-color: var(--border-color);&quot;&gt;issue_a_ra_value_w[31:0]&lt;/b&gt;" style="text;strokeColor=none;align=center;fillColor=none;html=1;verticalAlign=middle;whiteSpace=wrap;rounded=0;" vertex="1" parent="1">
          <mxGeometry x="808" y="61" width="138" height="20" as="geometry" />
        </mxCell>
        <mxCell id="g26mmf6BAN4Ecrwf_Er3-393" value="" style="endArrow=classic;html=1;rounded=0;strokeWidth=3;" edge="1" parent="1">
          <mxGeometry width="50" height="50" relative="1" as="geometry">
            <mxPoint x="800" y="109.78999999999996" as="sourcePoint" />
            <mxPoint x="1050" y="260" as="targetPoint" />
            <Array as="points">
              <mxPoint x="980" y="110" />
              <mxPoint x="980" y="260" />
            </Array>
          </mxGeometry>
        </mxCell>
        <mxCell id="g26mmf6BAN4Ecrwf_Er3-394" value="&lt;b style=&quot;border-color: var(--border-color);&quot;&gt;issue_a_rb_value_w[31:0]&lt;/b&gt;" style="text;strokeColor=none;align=center;fillColor=none;html=1;verticalAlign=middle;whiteSpace=wrap;rounded=0;" vertex="1" parent="1">
          <mxGeometry x="808" y="91" width="138" height="20" as="geometry" />
        </mxCell>
        <mxCell id="g26mmf6BAN4Ecrwf_Er3-395" value="" style="endArrow=classic;html=1;rounded=0;strokeWidth=3;" edge="1" parent="1">
          <mxGeometry width="50" height="50" relative="1" as="geometry">
            <mxPoint x="800" y="139.78999999999996" as="sourcePoint" />
            <mxPoint x="1050" y="390" as="targetPoint" />
            <Array as="points">
              <mxPoint x="960" y="140" />
              <mxPoint x="960" y="390" />
            </Array>
          </mxGeometry>
        </mxCell>
        <mxCell id="g26mmf6BAN4Ecrwf_Er3-396" value="&lt;b style=&quot;border-color: var(--border-color);&quot;&gt;issue_b_ra_value_w[31:0]&lt;/b&gt;" style="text;strokeColor=none;align=center;fillColor=none;html=1;verticalAlign=middle;whiteSpace=wrap;rounded=0;" vertex="1" parent="1">
          <mxGeometry x="808" y="121" width="138" height="20" as="geometry" />
        </mxCell>
        <mxCell id="g26mmf6BAN4Ecrwf_Er3-397" value="" style="endArrow=classic;html=1;rounded=0;strokeWidth=3;" edge="1" parent="1">
          <mxGeometry width="50" height="50" relative="1" as="geometry">
            <mxPoint x="800" y="169.78999999999996" as="sourcePoint" />
            <mxPoint x="1050" y="420" as="targetPoint" />
            <Array as="points">
              <mxPoint x="940" y="170" />
              <mxPoint x="940" y="420" />
            </Array>
          </mxGeometry>
        </mxCell>
        <mxCell id="g26mmf6BAN4Ecrwf_Er3-398" value="&lt;b style=&quot;border-color: var(--border-color);&quot;&gt;issue_b_rb_value_w[31:0]&lt;/b&gt;" style="text;strokeColor=none;align=center;fillColor=none;html=1;verticalAlign=middle;whiteSpace=wrap;rounded=0;" vertex="1" parent="1">
          <mxGeometry x="808" y="151" width="138" height="20" as="geometry" />
        </mxCell>
        <mxCell id="g26mmf6BAN4Ecrwf_Er3-399" value="" style="endArrow=classic;html=1;rounded=0;strokeWidth=3;entryX=-0.003;entryY=0.489;entryDx=0;entryDy=0;entryPerimeter=0;" edge="1" parent="1">
          <mxGeometry width="50" height="50" relative="1" as="geometry">
            <mxPoint x="360" y="480" as="sourcePoint" />
            <mxPoint x="519.73" y="480.04999999999995" as="targetPoint" />
          </mxGeometry>
        </mxCell>
        <mxCell id="g26mmf6BAN4Ecrwf_Er3-400" value="&lt;font size=&quot;1&quot; style=&quot;&quot;&gt;&lt;b style=&quot;font-size: 12px;&quot;&gt;fetch0_instr_i[31:0]&lt;/b&gt;&lt;/font&gt;" style="text;strokeColor=none;align=center;fillColor=none;html=1;verticalAlign=middle;whiteSpace=wrap;rounded=0;" vertex="1" parent="1">
          <mxGeometry x="390" y="466" width="115" height="10" as="geometry" />
        </mxCell>
        <mxCell id="g26mmf6BAN4Ecrwf_Er3-401" value="" style="endArrow=classic;html=1;rounded=0;strokeWidth=3;entryX=-0.007;entryY=0.578;entryDx=0;entryDy=0;entryPerimeter=0;" edge="1" parent="1">
          <mxGeometry width="50" height="50" relative="1" as="geometry">
            <mxPoint x="360" y="520" as="sourcePoint" />
            <mxPoint x="519.3700000000001" y="520.1000000000001" as="targetPoint" />
          </mxGeometry>
        </mxCell>
        <mxCell id="g26mmf6BAN4Ecrwf_Er3-403" value="&lt;font size=&quot;1&quot; style=&quot;&quot;&gt;&lt;b style=&quot;font-size: 12px;&quot;&gt;fetch1_instr_i[31:0]&lt;/b&gt;&lt;/font&gt;" style="text;strokeColor=none;align=center;fillColor=none;html=1;verticalAlign=middle;whiteSpace=wrap;rounded=0;" vertex="1" parent="1">
          <mxGeometry x="390" y="505" width="115" height="12" as="geometry" />
        </mxCell>
        <mxCell id="g26mmf6BAN4Ecrwf_Er3-405" value="" style="endArrow=classic;html=1;rounded=0;strokeWidth=3;" edge="1" parent="1">
          <mxGeometry width="50" height="50" relative="1" as="geometry">
            <mxPoint x="610" y="291.78999999999996" as="sourcePoint" />
            <mxPoint x="1050" y="292" as="targetPoint" />
          </mxGeometry>
        </mxCell>
        <mxCell id="g26mmf6BAN4Ecrwf_Er3-406" value="&lt;font size=&quot;1&quot; style=&quot;&quot;&gt;&lt;b style=&quot;font-size: 12px;&quot;&gt;issue_a_ra_idx_w[4:0]&lt;/b&gt;&lt;/font&gt;" style="text;strokeColor=none;align=center;fillColor=none;html=1;verticalAlign=middle;whiteSpace=wrap;rounded=0;" vertex="1" parent="1">
          <mxGeometry x="615" y="272" width="125" height="20" as="geometry" />
        </mxCell>
        <mxCell id="g26mmf6BAN4Ecrwf_Er3-407" value="" style="endArrow=classic;html=1;rounded=0;strokeWidth=3;" edge="1" parent="1">
          <mxGeometry width="50" height="50" relative="1" as="geometry">
            <mxPoint x="610" y="319.28999999999996" as="sourcePoint" />
            <mxPoint x="1050" y="320" as="targetPoint" />
          </mxGeometry>
        </mxCell>
        <mxCell id="g26mmf6BAN4Ecrwf_Er3-408" value="&lt;font size=&quot;1&quot; style=&quot;&quot;&gt;&lt;b style=&quot;font-size: 12px;&quot;&gt;issue_a_rb_idx_w[4:0]&lt;/b&gt;&lt;/font&gt;" style="text;strokeColor=none;align=center;fillColor=none;html=1;verticalAlign=middle;whiteSpace=wrap;rounded=0;" vertex="1" parent="1">
          <mxGeometry x="615" y="300.5" width="125" height="20" as="geometry" />
        </mxCell>
        <mxCell id="g26mmf6BAN4Ecrwf_Er3-409" value="" style="endArrow=classic;html=1;rounded=0;strokeWidth=3;" edge="1" parent="1">
          <mxGeometry width="50" height="50" relative="1" as="geometry">
            <mxPoint x="610" y="350.28999999999996" as="sourcePoint" />
            <mxPoint x="1050" y="350" as="targetPoint" />
          </mxGeometry>
        </mxCell>
        <mxCell id="g26mmf6BAN4Ecrwf_Er3-410" value="&lt;font size=&quot;1&quot; style=&quot;&quot;&gt;&lt;b style=&quot;font-size: 12px;&quot;&gt;issue_a_rd_idx_w[4:0]&lt;/b&gt;&lt;/font&gt;" style="text;strokeColor=none;align=center;fillColor=none;html=1;verticalAlign=middle;whiteSpace=wrap;rounded=0;" vertex="1" parent="1">
          <mxGeometry x="615" y="331.5" width="125" height="20" as="geometry" />
        </mxCell>
        <mxCell id="g26mmf6BAN4Ecrwf_Er3-411" value="" style="endArrow=classic;html=1;rounded=0;strokeWidth=3;" edge="1" parent="1">
          <mxGeometry width="50" height="50" relative="1" as="geometry">
            <mxPoint x="610" y="450.28999999999996" as="sourcePoint" />
            <mxPoint x="1050" y="450" as="targetPoint" />
          </mxGeometry>
        </mxCell>
        <mxCell id="g26mmf6BAN4Ecrwf_Er3-412" value="&lt;font size=&quot;1&quot; style=&quot;&quot;&gt;&lt;b style=&quot;font-size: 12px;&quot;&gt;issue_b_ra_idx_w[4:0]&lt;/b&gt;&lt;/font&gt;" style="text;strokeColor=none;align=center;fillColor=none;html=1;verticalAlign=middle;whiteSpace=wrap;rounded=0;" vertex="1" parent="1">
          <mxGeometry x="615" y="431.5" width="125" height="20" as="geometry" />
        </mxCell>
        <mxCell id="g26mmf6BAN4Ecrwf_Er3-413" value="" style="endArrow=classic;html=1;rounded=0;strokeWidth=3;" edge="1" parent="1">
          <mxGeometry width="50" height="50" relative="1" as="geometry">
            <mxPoint x="610" y="479.28999999999996" as="sourcePoint" />
            <mxPoint x="1050" y="480" as="targetPoint" />
          </mxGeometry>
        </mxCell>
        <mxCell id="g26mmf6BAN4Ecrwf_Er3-414" value="&lt;font size=&quot;1&quot; style=&quot;&quot;&gt;&lt;b style=&quot;font-size: 12px;&quot;&gt;issue_b_rb_idx_w[4:0]&lt;/b&gt;&lt;/font&gt;" style="text;strokeColor=none;align=center;fillColor=none;html=1;verticalAlign=middle;whiteSpace=wrap;rounded=0;" vertex="1" parent="1">
          <mxGeometry x="615" y="460.5" width="125" height="20" as="geometry" />
        </mxCell>
        <mxCell id="g26mmf6BAN4Ecrwf_Er3-415" value="" style="endArrow=classic;html=1;rounded=0;strokeWidth=3;" edge="1" parent="1">
          <mxGeometry width="50" height="50" relative="1" as="geometry">
            <mxPoint x="610" y="510.28999999999996" as="sourcePoint" />
            <mxPoint x="1050" y="510" as="targetPoint" />
          </mxGeometry>
        </mxCell>
        <mxCell id="g26mmf6BAN4Ecrwf_Er3-416" value="&lt;font size=&quot;1&quot; style=&quot;&quot;&gt;&lt;b style=&quot;font-size: 12px;&quot;&gt;issue_b_rd_idx_w[4:0]&lt;/b&gt;&lt;/font&gt;" style="text;strokeColor=none;align=center;fillColor=none;html=1;verticalAlign=middle;whiteSpace=wrap;rounded=0;" vertex="1" parent="1">
          <mxGeometry x="610" y="489.5" width="135" height="21" as="geometry" />
        </mxCell>
        <mxCell id="g26mmf6BAN4Ecrwf_Er3-417" value="&lt;b&gt;&lt;font style=&quot;font-size: 15px;&quot;&gt;Instruction&lt;br&gt;Decoder&lt;br&gt;&lt;/font&gt;&lt;/b&gt;" style="rounded=1;whiteSpace=wrap;html=1;arcSize=11;" vertex="1" parent="1">
          <mxGeometry x="520" y="210" width="90" height="500" as="geometry" />
        </mxCell>
        <mxCell id="g26mmf6BAN4Ecrwf_Er3-419" value="&lt;b&gt;Issue Slot 0&lt;br&gt;(Bypass)&lt;br&gt;&lt;/b&gt;" style="rounded=1;whiteSpace=wrap;html=1;" vertex="1" parent="1">
          <mxGeometry x="1050" y="210" width="80" height="150" as="geometry" />
        </mxCell>
        <mxCell id="g26mmf6BAN4Ecrwf_Er3-420" value="&lt;b&gt;Issue Slot 0&lt;br&gt;(Bypass)&lt;br&gt;&lt;/b&gt;" style="rounded=1;whiteSpace=wrap;html=1;" vertex="1" parent="1">
          <mxGeometry x="1050" y="370" width="80" height="150" as="geometry" />
        </mxCell>
        <mxCell id="g26mmf6BAN4Ecrwf_Er3-421" value="&lt;b&gt;Pipeline&lt;br&gt;Control&lt;br&gt;&lt;/b&gt;" style="rounded=1;whiteSpace=wrap;html=1;" vertex="1" parent="1">
          <mxGeometry x="1330" y="530" width="80" height="182" as="geometry" />
        </mxCell>
        <mxCell id="g26mmf6BAN4Ecrwf_Er3-422" value="&lt;b&gt;&lt;br&gt;&lt;/b&gt;" style="rounded=1;whiteSpace=wrap;html=1;" vertex="1" parent="1">
          <mxGeometry x="1330" y="211" width="80" height="309" as="geometry" />
        </mxCell>
        <mxCell id="g26mmf6BAN4Ecrwf_Er3-423" value="&lt;b&gt;ALU&lt;br&gt;&lt;/b&gt;" style="rounded=1;whiteSpace=wrap;html=1;" vertex="1" parent="1">
          <mxGeometry x="1340" y="237" width="60" height="36" as="geometry" />
        </mxCell>
        <mxCell id="g26mmf6BAN4Ecrwf_Er3-427" value="&lt;b&gt;ALU&lt;br&gt;&lt;/b&gt;" style="rounded=1;whiteSpace=wrap;html=1;" vertex="1" parent="1">
          <mxGeometry x="1340" y="280" width="60" height="36" as="geometry" />
        </mxCell>
        <mxCell id="g26mmf6BAN4Ecrwf_Er3-428" value="&lt;b&gt;LSU&lt;br&gt;&lt;/b&gt;" style="rounded=1;whiteSpace=wrap;html=1;" vertex="1" parent="1">
          <mxGeometry x="1340" y="324" width="60" height="36" as="geometry" />
        </mxCell>
        <mxCell id="g26mmf6BAN4Ecrwf_Er3-429" value="&lt;b&gt;CSR&lt;br&gt;&lt;/b&gt;" style="rounded=1;whiteSpace=wrap;html=1;" vertex="1" parent="1">
          <mxGeometry x="1340" y="369" width="60" height="36" as="geometry" />
        </mxCell>
        <mxCell id="g26mmf6BAN4Ecrwf_Er3-430" value="&lt;b&gt;MUL&lt;br&gt;&lt;/b&gt;" style="rounded=1;whiteSpace=wrap;html=1;" vertex="1" parent="1">
          <mxGeometry x="1340" y="414.5" width="60" height="36" as="geometry" />
        </mxCell>
        <mxCell id="g26mmf6BAN4Ecrwf_Er3-431" value="&lt;b&gt;DIV&lt;br&gt;&lt;/b&gt;" style="rounded=1;whiteSpace=wrap;html=1;" vertex="1" parent="1">
          <mxGeometry x="1340" y="457.5" width="60" height="36" as="geometry" />
        </mxCell>
      </root>
    </mxGraphModel>
  </diagram>
</mxfile>
